<?xml version="1.0" encoding="UTF-8"?>
<svg id="Layer_1" xmlns="http://www.w3.org/2000/svg" viewBox="0 0 1366 768">
  <defs>
    <style>
      .cls-1 {
        fill: #ff931e;
      }

      .cls-2 {
        fill: #ffc933;
      }
    </style>
  </defs>
  <g>
    <path class="cls-2" d="M481,477.59c-6.6,0-14.81-3.4-18.07-12.92l-35.15-102.74-108.91,1.68c-8.34,0-15.44-5.13-18.09-13.07-2.65-7.93-.03-16.3,6.66-21.32l86.85-65.18-35.15-102.74c-2.06-6.02-1.21-12.12,2.39-17.16,3.68-5.15,9.57-8.23,15.74-8.23,3.84,0,7.62,1.23,10.94,3.57l88.83,62.46,86.85-65.18c3.41-2.56,7.35-3.91,11.39-3.91,6.08,0,11.91,2.98,15.6,7.98,3.61,4.88,4.58,10.86,2.74,16.84l-31.96,103.78,88.83,62.46c6.9,4.85,9.75,13.19,7.27,21.25-2.48,8.06-9.53,13.35-17.97,13.48l-108.58,1.68-31.96,103.78c-2.52,8.19-9.7,13.49-18.28,13.49Z"/>
    <path class="cls-1" d="M575.3,133.35h0c5.92,0,11.6,2.91,15.2,7.78,3.51,4.75,4.46,10.57,2.66,16.39l-31.85,103.43-.21.69.59.42,88.53,62.25c6.72,4.72,9.5,12.85,7.08,20.7-2.42,7.85-9.28,13-17.5,13.13l-108.21,1.67h-.73s-.21.71-.21.71l-31.85,103.43c-2.46,7.98-9.44,13.13-17.8,13.13-6.42,0-14.42-3.31-17.59-12.59l-35.03-102.4-.24-.69h-.73s-108.21,1.68-108.21,1.68c-.11,0-.22,0-.33,0-8.12,0-15.04-5-17.62-12.73-2.05-6.15-1.42-14.83,6.49-20.76l86.56-64.96.58-.44-.24-.69-35.03-102.4c-2.01-5.87-1.18-11.8,2.32-16.7,3.54-4.95,9.41-8.02,15.34-8.02,3.73,0,7.42,1.2,10.65,3.48l88.53,62.25.59.42.58-.44,86.56-64.96c3.32-2.49,7.16-3.81,11.09-3.81M575.29,132.35c-3.92,0-7.98,1.23-11.69,4.01l-86.56,64.96-88.53-62.25c-3.61-2.54-7.48-3.66-11.23-3.66-12.37,0-23.33,12.25-18.61,26.04l35.03,102.4-86.56,64.96c-15.1,11.33-7.02,35.29,11.73,35.29.11,0,.23,0,.34,0l108.21-1.67,35.03,102.4c3.03,8.87,10.79,13.26,18.54,13.26s15.92-4.64,18.75-13.84l31.85-103.43,108.21-1.67c18.99-.29,26.51-24.72,10.98-35.65l-88.53-62.25,31.85-103.43c4.22-13.72-6.68-25.47-18.82-25.47h0Z"/>
  </g>
  <g>
    <path class="cls-2" d="M715.57,598.95c-6.27,0-13.06-4.5-13.28-12.83l-1.24-46.91-45-13.31c-5.57-1.65-9.26-6.46-9.42-12.26s3.28-10.8,8.75-12.74l44.23-15.68-1.24-46.91c-.1-3.67,1.15-6.94,3.6-9.46,2.52-2.58,6.05-4.07,9.69-4.07,4.07,0,7.73,1.84,10.29,5.17l28.58,37.22,44.23-15.68c1.5-.53,3.03-.8,4.54-.8,4.8,0,9.22,2.74,11.55,7.15,2.29,4.34,1.97,9.39-.85,13.49l-26.57,38.68,28.58,37.22c3.12,4.07,3.65,9.21,1.41,13.75-2.26,4.59-6.74,7.45-11.67,7.45-1.29,0-2.6-.19-3.9-.58l-45-13.31-26.57,38.68c-2.5,3.64-6.4,5.73-10.71,5.73Z"/>
    <path class="cls-1" d="M711.65,425.28c3.92,0,7.43,1.77,9.89,4.98l28.36,36.93.44.58.68-.24,43.89-15.56c1.45-.51,2.92-.77,4.37-.77,4.61,0,8.87,2.64,11.1,6.89,2.2,4.18,1.89,9.03-.82,12.97l-26.36,38.38-.41.6.44.58,28.36,36.93c3,3.91,3.51,8.86,1.36,13.23-2.18,4.42-6.48,7.17-11.22,7.17-1.24,0-2.5-.19-3.76-.56l-44.65-13.21-.7-.21-.41.6-26.36,38.38c-2.44,3.55-6.1,5.51-10.29,5.51-3.19,0-6.36-1.21-8.71-3.31-1.79-1.61-3.95-4.48-4.07-9.03l-1.23-46.55-.02-.73-.7-.21-44.65-13.21c-5.35-1.58-8.91-6.21-9.06-11.8-.15-5.58,3.16-10.39,8.42-12.26l43.89-15.56.68-.24-.02-.73-1.23-46.54c-.12-4.46,1.82-7.41,3.46-9.1,2.42-2.49,5.82-3.91,9.33-3.91M711.65,424.28c-7.1,0-14.02,5.5-13.79,14.04l1.23,46.54-43.89,15.56c-12.46,4.42-11.99,22.21.69,25.96l44.65,13.21,1.23,46.55c.22,8.25,6.94,13.31,13.78,13.31,4.13,0,8.3-1.84,11.12-5.95l26.36-38.38,44.65,13.21c1.38.41,2.74.6,4.04.6,10.62,0,17.84-12.66,10.66-22l-28.36-36.93,26.36-38.38c6.52-9.5-.86-21.43-11.11-21.43-1.52,0-3.1.26-4.71.83l-43.89,15.56-28.36-36.93c-2.85-3.71-6.8-5.37-10.69-5.37h0Z"/>
  </g>
</svg>